<svg width="14" height="14" viewBox="0 0 14 14" fill="none" xmlns="http://www.w3.org/2000/svg">
<path d="M2.5 6C2.77613 6 2.99998 6.22387 3 6.5C3 6.77614 2.77614 7 2.5 7H1.5C1.22386 7 1 6.77614 1 6.5C1.00002 6.22387 1.22387 6 1.5 6H2.5Z" fill="#F2F2F2"/>
<path d="M5.5 6C5.77613 6 5.99998 6.22387 6 6.5C6 6.77614 5.77614 7 5.5 7H4.5C4.22386 7 4 6.77614 4 6.5C4.00002 6.22387 4.22387 6 4.5 6H5.5Z" fill="#F2F2F2"/>
<path d="M8.5 6C8.77613 6 8.99998 6.22387 9 6.5C9 6.77614 8.77614 7 8.5 7H7.5C7.22386 7 7 6.77614 7 6.5C7.00002 6.22387 7.22387 6 7.5 6H8.5Z" fill="#F2F2F2"/>
<path d="M11.5 6C11.7761 6 12 6.22387 12 6.5C12 6.77614 11.7761 7 11.5 7H10.5C10.2239 7 10 6.77614 10 6.5C10 6.22387 10.2239 6 10.5 6H11.5Z" fill="#F2F2F2"/>
<path d="M6.14564 0.159679C6.34085 -0.0531972 6.65779 -0.0532557 6.85297 0.159679L8.85358 2.34156C9.04881 2.55464 9.04881 2.90118 8.85358 3.11426C8.65839 3.32713 8.34144 3.32712 8.14625 3.11426L6.99946 1.86256V4.45435C6.99946 4.75607 6.77644 5 6.5 5C6.22356 5 6.00054 4.75607 6.00054 4.45435V1.86256L4.85375 3.11426C4.65856 3.32712 4.3416 3.32713 4.14642 3.11426C3.95119 2.90118 3.95119 2.55464 4.14642 2.34156L6.14564 0.159679Z" fill="#F2F2F2"/>
<path d="M6.85436 12.8403C6.65915 13.0532 6.34221 13.0533 6.14703 12.8403L4.14642 10.6584C3.95119 10.4454 3.95119 10.0988 4.14642 9.88574C4.34161 9.67287 4.65856 9.67288 4.85375 9.88574L6.00054 11.1374L6.00054 8.54565C6.00054 8.24393 6.22356 8 6.5 8C6.77644 8 6.99946 8.24393 6.99946 8.54565L6.99946 11.1374L8.14625 9.88574C8.34144 9.67288 8.6584 9.67287 8.85358 9.88574C9.04881 10.0988 9.04881 10.4454 8.85358 10.6584L6.85436 12.8403Z" fill="#F2F2F2"/>
</svg>
