<svg width="14" height="14" viewBox="0 0 14 14" fill="none" xmlns="http://www.w3.org/2000/svg">
<g clip-path="url(#clip0_3174_441)">
<path d="M2.5 6C2.77613 6 2.99998 6.22387 3 6.5C3 6.77614 2.77614 7 2.5 7H1.5C1.22386 7 1 6.77614 1 6.5C1.00002 6.22387 1.22387 6 1.5 6H2.5Z" fill="#F2F2F2"/>
<path d="M5.5 6C5.77613 6 5.99998 6.22387 6 6.5C6 6.77614 5.77614 7 5.5 7H4.5C4.22386 7 4 6.77614 4 6.5C4.00002 6.22387 4.22387 6 4.5 6H5.5Z" fill="#F2F2F2"/>
<path d="M8.5 6C8.77613 6 8.99998 6.22387 9 6.5C9 6.77614 8.77614 7 8.5 7H7.5C7.22386 7 7 6.77614 7 6.5C7.00002 6.22387 7.22387 6 7.5 6H8.5Z" fill="#F2F2F2"/>
<path d="M11.5 6C11.7761 6 12 6.22387 12 6.5C12 6.77614 11.7761 7 11.5 7H10.5C10.2239 7 10 6.77614 10 6.5C10 6.22387 10.2239 6 10.5 6H11.5Z" fill="#F2F2F2"/>
<path d="M6.85436 4.84032C6.65915 5.0532 6.34221 5.05326 6.14703 4.84032L4.14642 2.65844C3.95119 2.44536 3.95119 2.09882 4.14642 1.88574C4.34161 1.67287 4.65856 1.67288 4.85375 1.88574L6.00054 3.13744L6.00054 0.545652C6.00054 0.243927 6.22356 -2.42724e-07 6.5 -2.18557e-07C6.77644 -1.9439e-07 6.99946 0.243927 6.99946 0.545652L6.99946 3.13744L8.14625 1.88574C8.34144 1.67288 8.6584 1.67287 8.85358 1.88574C9.04881 2.09882 9.04881 2.44536 8.85358 2.65844L6.85436 4.84032Z" fill="#F2F2F2"/>
<path d="M6.14564 8.15968C6.34085 7.9468 6.65779 7.94674 6.85297 8.15968L8.85358 10.3416C9.04881 10.5546 9.04881 10.9012 8.85358 11.1143C8.65839 11.3271 8.34144 11.3271 8.14625 11.1143L6.99946 9.86256V12.4543C6.99946 12.7561 6.77644 13 6.5 13C6.22356 13 6.00054 12.7561 6.00054 12.4543V9.86256L4.85375 11.1143C4.65856 11.3271 4.3416 11.3271 4.14642 11.1143C3.95119 10.9012 3.95119 10.5546 4.14642 10.3416L6.14564 8.15968Z" fill="#F2F2F2"/>
</g>
<defs>
<clipPath id="clip0_3174_441">
<rect width="14" height="14" fill="white"/>
</clipPath>
</defs>
</svg>
